<svg xmlns="http://www.w3.org/2000/svg" xmlns:xlink="http://www.w3.org/1999/xlink" viewBox="0 0 400 300"><defs><style>.cls-1{isolation:isolate;}.cls-2{fill:url(#New_Gradient_Swatch_5);}.cls-3{mix-blend-mode:multiply;fill:url(#New_Gradient_Swatch_3);}</style><linearGradient id="New_Gradient_Swatch_5" x1="176.74" y1="199.38" x2="292.35" y2="83.25" gradientUnits="userSpaceOnUse"><stop offset="0" stop-color="#5a15ff"/><stop offset="0.07" stop-color="#6614ff"/><stop offset="1" stop-color="#f502fe"/></linearGradient><linearGradient id="New_Gradient_Swatch_3" x1="228.25" y1="148.45" x2="26.19" y2="176.32" gradientUnits="userSpaceOnUse"><stop offset="0" stop-color="#e5daff"/><stop offset="1" stop-color="#fef2ff"/></linearGradient></defs><g class="cls-1"><g id="Layer_3" data-name="Layer 3"><path class="cls-2" d="M271.48,193H199.29A43.65,43.65,0,1,1,230,180.31l-.11.11,0,0a2.13,2.13,0,0,1-2.17.23l-4.09-2.17a.93.93,0,0,1-.21-1.6l1.79-1.63a37.23,37.23,0,0,0,5.46-7A36.65,36.65,0,1,0,199.29,186h69.78v0a2.15,2.15,0,0,1,1.78,1.3l1.56,4.37A.92.92,0,0,1,271.48,193Zm-104-7H118.1v0a2.15,2.15,0,0,0-1.78,1.3l-1.56,4.37a.92.92,0,0,0,.93,1.31h49.45v0a2.13,2.13,0,0,0,1.69-1.28l1.55-4.37A.92.92,0,0,0,167.46,186Z"/><path class="cls-3" d="M224.28,149.33a25.73,25.73,0,0,1-20.2,25.16,26.43,26.43,0,0,1-5.55.6H154.27v0a2.52,2.52,0,0,1-2.1-1.55l-1.85-5.17a1.1,1.1,0,0,1,1.11-1.56h47.1a17.63,17.63,0,0,0,3.77-.41,17.41,17.41,0,0,0,11.75-9,17.23,17.23,0,0,0,1.94-8,17.47,17.47,0,0,0-26.29-15.07,17.76,17.76,0,0,0-4,3.2,17.54,17.54,0,0,0-3.63,17.79l.06.14-.05,0a2.55,2.55,0,0,1-.58,2.22l-3.87,3.89a1.1,1.1,0,0,1-1.89-.32l-1.27-2.67-.08-.15-.12-.32a25.76,25.76,0,1,1,50-8.73ZM144,174l-2.16-6a3,3,0,0,0-2.45-1.8v0H93.11a1.28,1.28,0,0,0-1.29,1.82L94,174a2.94,2.94,0,0,0,2.34,1.78v.05h46.4A1.29,1.29,0,0,0,144,174Zm-63.59,1.83H56.14v-.05A3,3,0,0,1,53.79,174l-2.15-6a1.28,1.28,0,0,1,1.29-1.82H77.1v0a3,3,0,0,1,2.45,1.8l2.15,6A1.28,1.28,0,0,1,80.42,175.78Zm28.29,16.71a1.28,1.28,0,0,1-1.29,1.82H79v0a2.94,2.94,0,0,1-2.34-1.78l-2.15-6a1.28,1.28,0,0,1,1.28-1.82H104.1v0a3,3,0,0,1,2.46,1.8Zm-47.32,0a1.28,1.28,0,0,1-1.29,1.82h-16v0a2.94,2.94,0,0,1-2.34-1.78l-2.16-6a1.28,1.28,0,0,1,1.29-1.82H56.78v0a2.94,2.94,0,0,1,2.46,1.8Z"/></g></g></svg>