<svg fill="none" height="34" viewBox="0 0 146 34" width="146" xmlns="http://www.w3.org/2000/svg"><path d="m140.039 24.1076c0 .531.157 1.0502.453 1.4917.295.4416.714.7857 1.205.989.491.2032 1.031.2564 1.552.1528s1-.3594 1.375-.7349c.376-.3755.632-.8539.736-1.3748.103-.5208.05-1.0607-.153-1.5514-.204-.4906-.548-.9099-.99-1.205-.441-.295-.961-.4525-1.492-.4525-.71.0086-1.388.2943-1.89.796s-.787 1.1796-.796 1.8891zm-18.911-2.7184c.607 3.3252 3.559 5.4783 8.208 5.4783s8.2-2.4939 8.2-5.8939c0-7.7892-11.834-4.1981-11.834-8.5042 0-1.4714 1.513-2.4523 3.634-2.4523s3.626 1.0973 3.925 3.0924l3.967-.8313c-.565-3.32514-3.476-5.4782-7.892-5.4782s-7.634 2.49389-7.634 5.8191c0 7.5564 11.825 3.9237 11.825 8.3877 0 1.4714-1.663 2.602-4.158 2.602s-3.9-1.089-4.233-3.0924zm-2.786-14.24837h-3.975v19.30267h3.975zm-25.3564 11.29727c0 4.9878 3.7007 8.3878 8.8074 8.3878 5.106 0 8.765-3.4 8.765-8.3878v-11.29727h-3.967v11.29727c-.052 1.2431-.582 2.418-1.48 3.2793-.898.8612-2.095 1.3421-3.339 1.3421-1.245 0-2.4413-.4809-3.3394-1.3421-.8981-.8613-1.4285-2.0362-1.4802-3.2793v-11.29727h-3.9668zm-14.2624 4.7218c-.8118-.017-1.612-.1957-2.3538-.5257s-1.4103-.8046-1.9664-1.396c-.556-.5915-.9884-1.2879-1.2719-2.0484-.2835-.7606-.4123-1.5701-.3789-2.381 0-1.6337.6492-3.2005 1.8049-4.3557 1.1556-1.1552 2.723-1.8042 4.3574-1.8042s3.2018.649 4.3574 1.8042c1.1557 1.1552 1.8049 2.722 1.8049 4.3557.0266.8412-.1196 1.679-.4295 2.4615-.3099.7826-.7769 1.4933-1.3723 2.0885-.5954.5951-1.3064 1.062-2.0893 1.3717-.7829.3098-1.6209.4559-2.4625.4294zm6.3536-10.4244c-1.2141-3.59125-4.0084-5.97707-7.6759-5.97707-4.9897 0-8.732 4.34767-8.732 10.05037s3.7423 10.0171 8.732 10.0171c3.6675 0 6.4618-2.3858 7.6759-5.9687v13.1428h3.9669v-26.85917h-3.9669zm-26.8531-5.97707c-3.3265 0-5.8214 2.07824-6.9192 5.37017v-4.98777h-3.9668v19.30267h3.9668v-10.9149c0-2.9843 2.2371-5.1374 5.4056-5.1374.6681-.0003 1.3294.1335 1.9447.3935.6154.2599 1.1722.6408 1.6376 1.1199.4653.4791.8297 1.0468 1.0715 1.6693.2417.6225.356 1.2872.336 1.9547v10.9149h3.9668v-11.4802c0-4.7217-3.0188-8.1633-7.4846-8.1633zm-23.9259 3.44157c1.3993-.0143 2.7595.4619 3.8442 1.3457s1.8255 2.1195 2.0936 3.4924h-11.8756c.28-1.3671 1.024-2.5955 2.1061-3.4771 1.082-.8817 2.4357-1.3625 3.8317-1.361zm0-3.44157c-1.3282-.02712-2.6482.21424-3.8807.70961-1.2326.49537-2.3524 1.23453-3.2921 2.17314-.9398.93862-1.6802 2.05732-2.1768 3.28902-.4965 1.2317-.7391 2.5509-.7131 3.8786-.006 1.3362.2566 2.66.7722 3.8928.5155 1.2328 1.2737 2.3495 2.2293 3.2838s2.0893 1.6672 3.3337 2.1551c1.2444.488 2.5742.7211 3.9105.6854 1.8771.0413 3.7284-.4428 5.3448-1.3976 1.6165-.9548 2.9337-2.3423 3.803-4.0058l-3.3265-1.4714c-.6268 1.1828-1.6058 2.1417-2.8016 2.7442-1.1958.6024-2.5493.8187-3.8733.6188-1.3241-.1999-2.5533-.8061-3.5177-1.7347-.9645-.9286-1.6165-2.1337-1.8659-3.4488h15.9838c.7235-6.3096-3.7423-11.37217-9.9296-11.37217zm-21.1732 18.43817-8.46592-25.1966h-4.457508l9.147878 26.4435h7.26005l9.2144-26.4435h-4.2329z" fill="#1d1d1b"/></svg>