<svg width="146" height="34" viewBox="0 0 146 34" fill="none" xmlns="http://www.w3.org/2000/svg">
<path d="M140.039 24.1076C140.039 24.6386 140.196 25.1578 140.492 25.5993C140.787 26.0409 141.206 26.385 141.697 26.5883C142.188 26.7915 142.728 26.8447 143.249 26.7411C143.77 26.6375 144.249 26.3817 144.624 26.0062C145 25.6307 145.256 25.1523 145.36 24.6314C145.463 24.1106 145.41 23.5707 145.207 23.08C145.003 22.5894 144.659 22.1701 144.217 21.875C143.776 21.58 143.256 21.4225 142.725 21.4225C142.015 21.4311 141.337 21.7168 140.835 22.2185C140.333 22.7202 140.048 23.3981 140.039 24.1076ZM121.128 21.3892C121.735 24.7144 124.687 26.8675 129.336 26.8675C133.985 26.8675 137.536 24.3736 137.536 20.9736C137.536 13.1844 125.702 16.7755 125.702 12.4694C125.702 10.998 127.215 10.0171 129.336 10.0171C131.457 10.0171 132.962 11.1144 133.261 13.1095L137.228 12.2782C136.663 8.95306 133.752 6.8 129.336 6.8C124.92 6.8 121.702 9.29389 121.702 12.6191C121.702 20.1755 133.527 16.5428 133.527 21.0068C133.527 22.4782 131.864 23.6088 129.369 23.6088C126.874 23.6088 125.469 22.5198 125.136 20.5164L121.128 21.3892ZM118.342 7.14083H114.367V26.4435H118.342V7.14083ZM92.9856 18.4381C92.9856 23.4259 96.6863 26.8259 101.793 26.8259C106.899 26.8259 110.558 23.4259 110.558 18.4381V7.14083H106.591V18.4381C106.539 19.6812 106.009 20.8561 105.111 21.7174C104.213 22.5786 103.016 23.0595 101.772 23.0595C100.527 23.0595 99.3307 22.5786 98.4326 21.7174C97.5345 20.8561 97.0041 19.6812 96.9524 18.4381V7.14083H92.9856V18.4381ZM78.7232 23.1599C77.9114 23.1429 77.1112 22.9642 76.3694 22.6342C75.6276 22.3042 74.9591 21.8296 74.403 21.2382C73.847 20.6467 73.4146 19.9503 73.1311 19.1898C72.8476 18.4292 72.7188 17.6197 72.7522 16.8088C72.7522 15.1751 73.4014 13.6083 74.5571 12.4531C75.7127 11.2979 77.2801 10.6489 78.9145 10.6489C80.5489 10.6489 82.1163 11.2979 83.2719 12.4531C84.4276 13.6083 85.0768 15.1751 85.0768 16.8088C85.1034 17.65 84.9572 18.4878 84.6473 19.2703C84.3374 20.0529 83.8704 20.7636 83.275 21.3588C82.6796 21.9539 81.9686 22.4208 81.1857 22.7305C80.4028 23.0403 79.5648 23.1864 78.7232 23.1599ZM85.0768 12.7355C83.8627 9.14425 81.0684 6.75843 77.4009 6.75843C72.4112 6.75843 68.6689 11.1061 68.6689 16.8088C68.6689 22.5115 72.4112 26.8259 77.4009 26.8259C81.0684 26.8259 83.8627 24.4401 85.0768 20.8572V34H89.0437V7.14083H85.0768V12.7355ZM58.2237 6.75843C54.8972 6.75843 52.4023 8.83667 51.3045 12.1286V7.14083H47.3377V26.4435H51.3045V15.5286C51.3045 12.5443 53.5416 10.3912 56.7101 10.3912C57.3782 10.3909 58.0395 10.5247 58.6548 10.7847C59.2702 11.0446 59.827 11.4255 60.2924 11.9046C60.7577 12.3837 61.1221 12.9514 61.3639 13.5739C61.6056 14.1964 61.7199 14.8611 61.6999 15.5286V26.4435H65.6667V14.9633C65.6667 10.2416 62.6479 6.8 58.1821 6.8L58.2237 6.75843ZM34.2978 10.2C35.6971 10.1857 37.0573 10.6619 38.142 11.5457C39.2267 12.4295 39.9675 13.6652 40.2356 15.0381H28.36C28.64 13.671 29.384 12.4426 30.4661 11.561C31.5481 10.6793 32.9018 10.1985 34.2978 10.2ZM34.2978 6.75843C32.9696 6.73131 31.6496 6.97267 30.4171 7.46804C29.1845 7.96341 28.0647 8.70257 27.125 9.64118C26.1852 10.5798 25.4448 11.6985 24.9482 12.9302C24.4517 14.1619 24.2091 15.4811 24.2351 16.8088C24.2291 18.145 24.4917 19.4688 25.0073 20.7016C25.5228 21.9344 26.281 23.0511 27.2366 23.9854C28.1922 24.9197 29.3259 25.6526 30.5703 26.1405C31.8147 26.6285 33.1445 26.8616 34.4808 26.8259C36.3579 26.8672 38.2092 26.3831 39.8256 25.4283C41.4421 24.4735 42.7593 23.086 43.6286 21.4225L40.3021 19.9511C39.6753 21.1339 38.6963 22.0928 37.5005 22.6953C36.3047 23.2977 34.9512 23.514 33.6272 23.3141C32.3031 23.1142 31.0739 22.508 30.1095 21.5794C29.145 20.6508 28.493 19.4457 28.2436 18.1306H44.2274C44.9509 11.821 40.4851 6.75843 34.2978 6.75843ZM13.1246 25.1966L4.65868 0H0.201172L9.34905 26.4435H16.6091L25.8235 0H21.5906L13.1246 25.1966Z" fill="white"/>
</svg>
