<?xml version="1.0" encoding="utf-8"?>
<!-- Generator: Adobe Illustrator 16.0.0, SVG Export Plug-In . SVG Version: 6.00 Build 0)  -->
<!DOCTYPE svg PUBLIC "-//W3C//DTD SVG 1.1//EN" "http://www.w3.org/Graphics/SVG/1.1/DTD/svg11.dtd">
<svg version="1.1" id="Layer_1" xmlns="http://www.w3.org/2000/svg" xmlns:xlink="http://www.w3.org/1999/xlink" x="0px" y="0px"
	 width="173.166px" height="88px" viewBox="0 0 173.166 88" enable-background="new 0 0 173.166 88" xml:space="preserve">
<path fill="none" stroke="#2329D6" stroke-linecap="round" d="M5.667,65c0-8.25,11-8.25,16.5-13.75c2.75-2.75-5.5-2.75-5.5-16.5
	c0-9.166,3.666-13.75,11-13.75c7.334,0,11,4.584,11,13.75c0,13.75-8.25,13.75-5.5,16.5c5.5,5.5,16.5,5.5,16.5,13.75"/>
<path fill="none" stroke="#2329D6" stroke-linecap="round" d="M85.959,65c0-8.25,10.999-8.25,16.499-13.75
	c2.75-2.75-5.5-2.75-5.5-16.5c0-9.166,3.666-13.75,11-13.75c7.335,0,11,4.584,11,13.75c0,13.75-8.25,13.75-5.5,16.5
	c5.5,5.5,16.5,5.5,16.5,13.75"/>
<path fill="none" stroke="#2329D6" stroke-linecap="round" d="M45.98,58.559c2.079-1.434,4.777-2.465,7.36-3.709
	c2.019-0.973,3.968-2.074,5.492-3.6c2.75-2.75-5.5-2.75-5.5-16.5c0-9.166,3.666-13.75,11-13.75c7.335,0,11,4.584,11,13.75
	c0,13.75-8.25,13.75-5.5,16.5c5.5,5.5,16.5,5.5,16.5,13.75"/>
<path fill="none" stroke="#2329D6" stroke-linecap="round" d="M126.647,58.559c2.079-1.434,4.777-2.465,7.36-3.709
	c2.019-0.973,3.968-2.074,5.492-3.6c2.75-2.75-5.5-2.75-5.5-16.5c0-9.166,3.666-13.75,11-13.75c7.335,0,11,4.584,11,13.75
	c0,13.75-8.25,13.75-5.5,16.5C156,56.75,167,56.75,167,65"/>
</svg>
